<?xml version="1.0" standalone="no"?>
<!DOCTYPE svg PUBLIC "-//W3C//DTD SVG 20010904//EN"
 "http://www.w3.org/TR/2001/REC-SVG-20010904/DTD/svg10.dtd">
<svg version="1.0" xmlns="http://www.w3.org/2000/svg"
 width="1100.000000pt" height="600.000000pt" viewBox="0 0 1100.000000 600.000000"
 preserveAspectRatio="xMidYMid meet">

<g transform="translate(0.000000,600.000000) scale(0.100000,-0.100000)"
fill="#000000" stroke="none">
<path d="M5599 5187 c-98 -37 -157 -102 -191 -209 -22 -73 -23 -141 -3 -199
14 -38 14 -45 1 -58 -14 -13 -17 -13 -34 2 -28 26 -123 23 -180 -5 -66 -33
-134 -114 -171 -202 -40 -95 -55 -203 -47 -332 7 -116 9 -114 -86 -114 -63 0
-78 -17 -78 -88 0 -31 -7 -106 -15 -167 -22 -162 -22 -162 23 -174 20 -6 55
-13 77 -17 27 -5 33 -9 20 -12 -48 -10 -84 -35 -90 -61 -3 -15 1 -99 10 -186
18 -194 18 -205 3 -205 -25 0 -40 -18 -49 -60 -8 -36 -7 -44 8 -55 14 -10 15
-16 5 -27 -15 -18 -9 -106 8 -135 11 -17 10 -36 -3 -109 -31 -171 -38 -245
-32 -307 5 -52 3 -68 -16 -102 -11 -22 -28 -53 -37 -70 -8 -16 -23 -39 -33
-50 -37 -43 -100 -184 -109 -244 -5 -40 -21 -84 -44 -125 -30 -54 -36 -74 -36
-125 0 -34 5 -69 11 -79 8 -13 -1 -62 -39 -212 -42 -165 -48 -203 -43 -247 4
-29 11 -56 15 -60 4 -5 69 -8 144 -8 l136 0 7 35 c5 22 2 46 -7 68 -9 22 -14
70 -14 129 0 80 4 105 30 172 25 64 36 81 58 89 21 7 32 23 51 73 13 35 43
107 66 159 53 117 63 155 54 199 -8 40 29 134 61 151 11 6 30 30 41 53 12 23
36 54 54 69 27 23 34 37 39 82 4 29 21 89 37 132 17 44 35 93 41 109 6 17 28
49 49 73 21 24 41 57 44 73 4 16 10 29 13 29 4 0 21 -22 37 -48 26 -41 35 -48
70 -52 38 -5 43 -9 138 -150 54 -80 102 -151 107 -159 5 -9 30 -16 67 -19 53
-4 62 -7 77 -33 22 -37 12 -141 -16 -180 -18 -24 -19 -33 -8 -155 6 -71 18
-152 26 -181 8 -28 14 -63 14 -77 0 -15 6 -29 14 -32 21 -8 33 -247 13 -277
-8 -12 -17 -38 -19 -57 -3 -19 -11 -62 -18 -94 -18 -79 -6 -88 105 -85 51 2
100 -3 135 -14 67 -19 224 -30 305 -19 l60 7 3 41 c3 38 0 44 -32 63 -19 12
-57 28 -84 36 -42 13 -58 26 -112 91 -42 50 -66 89 -72 117 -10 44 -1 215 12
232 16 21 21 96 10 148 -11 45 -10 70 3 143 18 96 26 350 13 399 -4 17 -9 40
-12 52 -2 12 -11 23 -20 25 -9 2 -36 55 -69 139 -84 215 -142 319 -245 439
-36 42 -49 68 -57 109 -13 64 0 107 26 95 9 -4 31 -8 50 -8 31 -1 37 3 60 48
20 38 28 75 38 180 6 72 12 154 13 181 0 60 -25 107 -70 130 -29 15 -30 16
-15 45 8 16 15 36 15 44 0 10 19 4 70 -24 108 -59 179 -90 224 -96 23 -3 51
-10 63 -16 33 -16 89 12 161 81 56 53 60 60 71 124 17 98 26 117 55 117 32 0
39 12 26 45 -6 15 -13 60 -17 100 l-6 72 47 46 c25 25 46 50 46 55 0 24 59 32
225 32 175 0 175 0 175 23 0 22 1 22 169 25 110 3 176 0 189 -7 14 -7 23 -8
27 -1 3 5 33 10 66 10 57 0 60 1 57 23 -3 20 -10 23 -71 27 -38 3 -74 2 -80
-2 -7 -4 -65 -8 -129 -8 l-118 0 0 29 c0 32 -14 49 -25 31 -15 -24 -34 26 -35
88 0 46 -3 63 -12 60 -9 -3 -14 -32 -16 -86 -2 -45 -7 -82 -12 -82 -6 0 -10
11 -10 25 l0 25 -429 0 c-362 0 -430 2 -434 14 -3 8 -16 16 -29 18 -19 2 -24
11 -28 43 -3 22 -8 36 -11 30 -7 -10 -22 -71 -23 -90 -1 -11 -104 -34 -156
-35 l-35 0 -3 54 -3 53 40 16 c22 9 45 25 50 36 16 29 13 132 -4 181 -8 23
-15 53 -15 66 0 16 -10 28 -32 40 -18 9 -59 32 -91 52 -51 31 -67 36 -135 39
-48 2 -90 -2 -113 -10z m781 -782 l0 -35 -57 1 c-32 1 -50 3 -40 6 9 2 18 10
18 16 1 7 2 17 4 22 1 6 3 13 3 18 1 4 18 7 37 7 33 0 35 -2 35 -35z m-20 -53
c0 -12 -73 -108 -84 -111 -14 -4 -57 80 -51 100 5 16 17 19 71 19 35 0 64 -4
64 -8z"/>
<path d="M6915 3291 c-86 -22 -162 -82 -206 -163 l-34 -63 0 -485 0 -485 24
-45 c47 -90 114 -149 203 -178 47 -15 110 -17 588 -17 534 0 535 0 591 23 68
27 140 88 173 145 40 68 47 140 44 417 l-3 255 -532 3 c-423 2 -533 0 -533
-10 0 -30 52 -120 90 -157 67 -65 101 -71 407 -71 l264 0 -3 -157 -3 -158
-502 -3 -503 -2 0 445 0 445 656 0 656 0 -7 28 c-20 84 -89 167 -177 214 l-43
23 -560 2 c-308 1 -573 -2 -590 -6z"/>
<path d="M8823 3291 c-89 -22 -188 -114 -223 -208 -20 -53 -20 -71 -18 -517
l3 -461 26 -56 c33 -69 88 -124 159 -158 l55 -26 526 -3 c511 -2 529 -2 582
18 77 29 140 87 179 168 l33 67 0 465 0 465 -29 62 c-31 69 -88 128 -158 165
l-43 23 -530 2 c-291 1 -544 -2 -562 -6z m1015 -713 l-3 -453 -472 -3 -473 -2
0 455 0 455 475 0 475 0 -2 -452z"/>
<path d="M967 3266 c-73 -30 -119 -65 -155 -119 -63 -93 -62 -83 -62 -586 l0
-458 30 -60 c36 -73 102 -136 175 -169 l53 -25 533 3 534 3 48 24 c97 48 176
153 190 254 l6 37 -595 0 -594 0 0 400 0 400 593 2 592 3 -3 30 c-2 17 -16 58
-33 92 -38 80 -111 145 -193 173 -57 19 -84 20 -560 20 l-501 0 -58 -24z"/>
<path d="M2823 3270 c-90 -32 -167 -102 -207 -189 -19 -42 -21 -63 -21 -231 0
-183 0 -185 28 -238 35 -67 99 -131 159 -160 82 -40 148 -44 623 -41 l450 4 3
-127 3 -128 -633 -2 -633 -3 3 -30 c10 -92 95 -201 195 -248 l58 -27 547 0
547 0 52 24 c74 35 141 100 174 171 29 59 29 62 29 246 l0 186 -31 61 c-37 74
-100 133 -178 164 -55 23 -62 23 -553 26 l-498 3 0 124 0 125 621 0 c586 0
620 1 615 18 -3 9 -10 35 -16 57 -23 86 -117 181 -213 215 -54 19 -83 20 -564
20 -472 -1 -512 -2 -560 -20z"/>
</g>
</svg>
